<?xml version="1.0" encoding="UTF-8" standalone="no"?>
<!-- Created with Inkscape (http://www.inkscape.org/) -->

<svg
   width="512"
   height="512"
   viewBox="0 0 512 512"
   version="1.1"
   id="svg1"
   xml:space="preserve"
   inkscape:version="1.4 (e7c3feb100, 2024-10-09)"
   sodipodi:docname="logo.svg"
   inkscape:export-filename="logo.png"
   inkscape:export-xdpi="96"
   inkscape:export-ydpi="96"
   xmlns:inkscape="http://www.inkscape.org/namespaces/inkscape"
   xmlns:sodipodi="http://sodipodi.sourceforge.net/DTD/sodipodi-0.dtd"
   xmlns="http://www.w3.org/2000/svg"
   xmlns:svg="http://www.w3.org/2000/svg"><sodipodi:namedview
     id="namedview1"
     pagecolor="#ffffff"
     bordercolor="#000000"
     borderopacity="0.25"
     inkscape:showpageshadow="2"
     inkscape:pageopacity="0.0"
     inkscape:pagecheckerboard="0"
     inkscape:deskcolor="#d1d1d1"
     inkscape:document-units="px"
     inkscape:zoom="0.81344901"
     inkscape:cx="170.26267"
     inkscape:cy="288.27867"
     inkscape:window-width="1496"
     inkscape:window-height="800"
     inkscape:window-x="0"
     inkscape:window-y="0"
     inkscape:window-maximized="0"
     inkscape:current-layer="layer1" /><defs
     id="defs1" /><g
     inkscape:label="Layer 1"
     inkscape:groupmode="layer"
     id="layer1"><g
       id="g11"
       transform="translate(29.505023,21.513173)"><path
         id="path2-9"
         style="fill:#ffdb14;fill-opacity:1;stroke-width:0.876336"
         class="st1"
         d="m 412.5229,82.035087 c -30.26678,-0.137783 -92.8553,29.087153 -111.56507,43.349513 -42.48223,32.45171 -56.78047,40.345 -74.46285,49.72178 11.20639,5.94264 23.44633,12.32447 46.12059,26.43214 34.08946,21.20732 17.44045,7.53682 60.99433,34.52796 3.98207,2.47647 7.7701,5.07427 11.45569,7.72614 22.29537,-1.16132 42.13143,-2.57448 55.09276,-16.31491 22.60946,-23.92396 14.7221,-26.63992 19.80484,-68.52877 3.24245,-26.46533 31.28587,-61.518757 3.33076,-74.926693 -2.78236,-1.347366 -6.44723,-1.967476 -10.77105,-1.98716 z M 107.92437,243.79262 c -35.571062,25.59428 -56.74326,58.72221 -51.026019,87.70545 9.727326,49.0748 57.574909,63.5357 96.046049,51.35464 28.48091,-9.02626 39.61037,-20.33099 61.34349,-53.01831 5.89747,-8.87409 9.2807,-14.13859 12.20709,-18.72482 -10.8583,-17.01713 -6.27027,-11.43835 -16.6247,-24.83009 -30.70542,-39.58283 -69.06954,-40.77441 -101.94591,-42.48687 z" /><path
         id="path2-1"
         style="fill:#f3811f;fill-opacity:1;stroke-width:0.876336"
         class="st1"
         d="m 40.467058,82.035087 c -4.323827,0.01968 -7.98869,0.639794 -10.771055,1.98716 -27.9551105,13.407936 0.08832,48.461363 3.33076,74.926693 5.082747,41.88885 -2.804617,44.60481 19.804843,68.52877 12.961332,13.74043 32.797383,15.15359 55.092764,16.31491 3.68559,-2.65187 7.47361,-5.24967 11.45569,-7.72614 43.55388,-26.99114 26.90488,-13.32065 60.99433,-34.52796 22.67425,-14.10767 34.91419,-20.48949 46.12059,-26.43214 C 208.81259,165.72961 194.51435,157.83631 152.03212,125.3846 133.32236,111.12224 70.733845,81.897304 40.467058,82.035087 Z M 345.06559,243.79262 c -32.87637,1.71246 -71.24049,2.90404 -101.94591,42.48687 -10.35443,13.39174 -5.7664,7.81296 -16.6247,24.83009 2.92639,4.58623 6.30962,9.85073 12.20708,18.72482 21.73313,32.68732 32.86259,43.99205 61.3435,53.01831 38.47114,12.18106 86.31872,-2.27984 96.04605,-51.35464 5.71724,-28.98324 -15.45496,-62.11117 -51.02602,-87.70545 z" /></g><g
       id="g10"
       transform="translate(-86.570313,38.00179)"><path
         class="st0"
         d="M 198.8,212.4 C 265.5,170.9 257.2,186 336.4,125.5 360.8,106.9 450.6,66 476,78.3 c 31.9,15.3 -0.1,55.3 -3.8,85.5 -5.8,47.8 3.2,50.9 -22.6,78.2 -36.6,38.8 -120.4,-8.7 -179.2,67.1 -15,19.4 -1.2,2 -32.9,49.7 -24.8,37.3 -37.5,50.2 -70,60.5 C 123.6,433.2 69,416.7 57.9,360.7 50.7,324.2 80.8,281.9 129.2,251.8 178.9,221 160,236.6 198.8,212.4 Z"
         id="path1" /><path
         class="st0"
         d="m 472.2,163.7 c -5.8,47.8 3.2,50.9 -22.6,78.2 -15.4,16.3 -39,17.4 -65.6,18.8 40.5,29.2 64.5,67 58,100 -11.1,55.9 -65.7,72.5 -109.6,58.6 -32.6,-10.3 -45.3,-23.2 -70,-60.5 -5.3,-8 -9.3,-14.1 -12.4,-19 -3.1,4.8 -7.1,11 -12.4,19 -24.8,37.3 -37.5,50.2 -70,60.5 -43.9,13.9 -98.5,-2.6 -109.6,-58.6 -6.5,-33 17.5,-70.8 58,-100 C 89.4,259.3 65.7,258.2 50.3,241.9 24.5,214.6 33.5,211.5 27.7,163.7 24.1,133.6 -7.9,93.6 24,78.3 49.4,66.1 139.2,107 163.5,125.6 c 50.2,38.3 65.2,46.3 86.5,57.5 21.2,-11.2 36.3,-19.2 86.5,-57.5 C 360.8,106.9 450.6,66 476,78.3 c 31.9,15.3 -0.1,55.3 -3.8,85.4 z"
         id="path3" /><g
         class="st2"
         id="g3">
	<polygon
   class="st3"
   points="257.8,169.5 411.5,258.6 403.7,272.2 250,183.1 "
   id="polygon3" />
	
		<rect
   x="329.70001"
   y="190.7"
   transform="matrix(0.8377,-0.5462,0.5462,0.8377,-48.0553,235.3527)"
   class="st3"
   width="84.5"
   height="15.6"
   id="rect3" />
</g><g
         class="st2"
         id="g5">
	<path
   class="st4"
   d="m 413,358 c -9.4,47.5 -55.8,61.5 -93,49.7 -27.6,-8.8 -38.4,-19.7 -59.4,-51.4 -4.5,-6.8 -7.9,-12 -10.5,-16.1 -2.6,4.1 -6,9.3 -10.5,16.1 -21,31.7 -31.8,42.6 -59.4,51.4 C 142.9,419.5 96.6,405.5 87.2,358 81.7,330 102,297.9 136.4,273.1 113.8,271.9 93.7,271 80.7,257.2 58.8,234 66.5,231.4 61.5,190.8 58.4,165.2 31.2,131.3 58.3,118.2 c 21.6,-10.4 97.8,24.4 118.4,40.2 42.6,32.5 55.4,39.3 73.4,48.8 l 113.7,65.9 v 0 c 38.8,21.4 54.7,56.9 49.2,84.9 z"
   id="path4" />
	<path
   class="st4"
   d="m 438.6,190.8 c -4.9,40.6 2.7,43.2 -19.2,66.4 -5.2,5.5 -11.5,9 -18.6,11.2 -7.8,2.4 -16.2,1.5 -23.2,-2.6 l -43.3,-25.1 52.8,-34.4 -7.3,-11.1 -58.4,38.1 -57.8,-33.5 c 13.1,-7.4 28.3,-17.4 59.7,-41.4 20.7,-15.8 96.8,-50.5 118.4,-40.2 27.2,13 0,47 -3.1,72.6 z"
   id="path5" />
</g><g
         class="st2"
         id="g6">
	<polygon
   class="st3"
   points="384,260.8 384,260.7 250,183.1 257.8,169.5 266.1,174.3 334.2,213.8 349.3,222.6 411.5,258.6 403.7,272.2 "
   id="polygon5" />
	<polygon
   class="st3"
   points="340.8,228.1 332.3,215 334.2,213.8 403,168.9 411.6,182 349.3,222.6 "
   id="polygon6" />
</g></g></g><style
     type="text/css"
     id="style1">
	.st0{display:none;fill:#F3811F;}
	.st1{fill:#F3811F;}
	.st2{display:none;}
	.st3{display:inline;fill:#FFFFFF;}
	.st4{display:inline;fill:#F3811F;}
</style><style
     type="text/css"
     id="style1-9">
	.st0{display:none;fill:#F3811F;}
	.st1{fill:#F3811F;}
	.st2{display:none;}
	.st3{display:inline;fill:#FFFFFF;}
	.st4{display:inline;fill:#F3811F;}
</style></svg>
